<svg fill-rule="evenodd" height="50" image-rendering="optimizeQuality" shape-rendering="geometricPrecision" text-rendering="geometricPrecision" viewBox="0 0 200 200" width="127" xmlns="http://www.w3.org/2000/svg">
 <path d="m162.28 9e-4c-0.9375-0.03169-1.875 0.8125-2.8125 0.96875-1.0714 0.17857-3.9241 4.8259-4.2812 5.7188-0.35715 0.89287-2.875 4.2812-2.875 4.2812s-1.9464 2.5223-3.375 4.8438c-1.4286 2.3214-3.5938 3.0312-3.5938 3.0312s-1.4196 0.70536-3.5625 1.0625c-2.1428 0.35715-6.0804 1.7723-7.6875 1.5938-1.6072-0.17855-6.9509 2.3348-9.0938 3.4062-2.1428 1.0714-4.8125 3.3973-6.0625 4.4688-1.25 1.0714-3.0625 1.4375-3.0625 1.4375s-4.0982 1.6027-4.8125 1.7812c-0.71426 0.17856-2.1384 1.9509-1.7812 2.8438 0.35716 0.89286-1.4375 1.9688-1.4375 1.9688s-2.8438 1.5938-4.0938 2.8438c-0.30476 0.30475-0.44154 0.71476-0.46875 1.1562l-98.094-23.812s-1.0848-5.3571-2.1562-5c-1.0714 0.35715-3.0312 1.7634-3.0312 2.6562 0 0.89286 0.53125 4.8438 0.53125 4.8438s2.8616 1.2366 3.2188 0.34375c0.35589-0.8897 99.268 22.987 99.969 23.156 0.23815 0.65241 0.49709 1.2384 0.5625 1.5l-0.9062 2.6562s2.683 0.2009 3.2188 1.0938c0.53571 0.89286 3.4062 3.9062 3.4062 3.9062l2.8438-1.5938 2.6875-0.1875s3.9152-2.1339 4.0938-3.5625c0.17858-1.4286 2.3438-4.8125 2.3438-4.8125l3.9062-0.1875 0.1875 4.4688s-1.4196 1.25-2.3125 1.25c-0.89284 0-1.6071 0.88395-2.5 2.3125-0.89284 1.4286-0.53125 2.1429-0.53125 5 0 2.8572-0.375 2.5134-1.625 3.4062-1.25 0.89286 0.1875 3.0312 0.1875 3.0312s-1.4241 4.634-1.7812 6.0625c-0.35714 1.4286 1.7947 6.9777 2.6875 8.4062 0.89286 1.4286 4.0938 9.8125 4.0938 9.8125l-1.0625 4.6562s-3.0357 0.35716-3.75 0c-0.71426-0.35714-2.6875 2.8438-2.6875 2.8438l-49.656-30-1.0625 1.7812 49.281 32.156 27.156 18.031s-5.1964 3.9241-5.375 3.0312c-0.17856-0.89284-1.9598-3.5803-3.0312-3.9375-1.0714-0.35714-3.567 4.8215-4.2812 5-0.71428 0.17857-4.4688 2.5-4.4688 2.5l-53.562-18.219 0.5312 4.125 74.812 26.594 49.312 20s15.357 9.6652 18.75 12.344c3.3928 2.6786 11.781-1.0938 11.781-1.0938s19.103 6.2723 21.781 6.0938c2.6786-0.17856 6.25-4.6562 6.25-4.6562l-3.5625-0.9062s-8.2322-1.4018-10.375-0.6875c-2.1428 0.71429-15.188-5.7188-15.188-5.7188l-31.25-13.219-34.625-25.188 2.8438-3.0312 9.8438-12.156 11.406-11.406c1.25-1.25 1.2723-1.0803 2.3438-2.6875 1.0714-1.6071-0.54019-2.6875-0.71875-3.9375s-0.89285-0.70089-1.25-1.5938c-0.35715-0.89284-0.91071-2.1473-1.625-3.2188-0.71429-1.0714-1.6027-1.2411-3.0312-2.3125-1.4286-1.0714-3.5804-1.0714-5.1875-1.25-1.6072-0.17857-2.5-0.90625-2.5-0.90625s0.91071-0.88393 1.625-2.3125c0.71429-1.4285 2.4822-1.7812 3.375-1.7812 0.89285 0 1.9866-3.4107 2.3438-4.125 0.35715-0.71429 0.54019-3.0134 0.71875-3.9062 0.17856-0.89284-0.91965-1.9688-1.8125-3.2188s-1.7634-0.89285-2.6562-1.25c-0.89285-0.35714-3.4107-1.0848-5.375-0.90625-1.9643 0.17856-4.2857-1.0536-6.25-0.875-1.9643 0.17856-4.1072-0.91964-5-0.5625-0.89285 0.35715-2.1473-2.4777-0.71875-3.9062 1.4286-1.4286 0.74106-1.2723 1.8125-2.3438 1.0714-1.0714 3.3795-4.1071 4.0938-5 0.71429-0.89285 0.54465 0.017918 1.4375-0.875 0.89285-0.89285 3.9152-0.8973 5.3438-0.71875 1.4286 0.17859 2.875-0.35714 4.125 0 1.25 0.35715 2.6741 0.17411 4.2812 0.53125 1.6072 0.35715 3.5714 1.25 6.25 2.5s4.817 0.9018 6.7812 1.4375c1.9643 0.53571 3.0446 0.69645 6.4375 0.875 3.3928 0.17856 4.1027 0.71875 5.5312 0.71875 1.4286 0 5 1.25 5 1.25l3.9062-0.1562s1.7266-0.11575 3.5312-0.21875c-0.90604 4.4803-15.656 77.344-15.656 77.344s-5-0.71429-5 0 0.34821 3.2232 1.0625 3.9375c0.71429 0.71429 2.6875 1.25 2.6875 1.25l-0.7188 8.0312 1.4375 0.3438 0.7188-8.375 2.5-1.4375s0.51785-2.6607-0.375-3.375c-0.85956-0.68765 14.197-72.356 15.344-77.812 0.46222-0.020992 1.2388-0.0625 1.4375-0.0625 1.0714 0 1.6205-0.5357 2.1562-1.25 0.53571-0.71429 1.9598-1.9509 1.7812-2.8438-0.17856-0.89285 1.25-1.25 1.25-1.25s1.9732-0.37054 1.4375-2.1562c-0.53571-1.7857-0.2009-0.33929 0.15625-2.125s-0.7009-1.4375-1.5938-2.6875c-0.89285-1.25-1.7902-0.71429-3.2188-1.25-1.4286-0.5357-2.5089-0.19644-3.9375-0.375-1.4286-0.17855-1.4286 0.55356-3.75 0.375-2.3214-0.17855-2.8438 1.4375-2.8438 1.4375s-5.7009-0.54019-7.8438-0.71875c-2.1428-0.17858-4.4688-1.7857-5.7188-2.5-1.25-0.71429-3.7634-0.35714-4.6562-1.25-0.89285-0.89285-2.6652-1.7857-2.8438-2.5-0.17856-0.71429-9.6607-4.6473-10.375-5.7188-0.71429-1.0714-1.7723-0.90179-2.8438-1.4375-1.0714-0.5357-5.8884-1.2589-6.7812-1.4375-0.89285-0.17855-1.2589 0.375-1.4375-0.875-0.17856-1.25 0.37054-1.625 0.90625-2.875s1.2411-1.7812 2.3125-3.0312 0.54465-2.2991 1.4375-3.9062 0.16519-1.991 0.34375-4.3125c0.17856-2.3214-0.3616-1.7812-0.71875-4.2812s-1.6072-1.7902-2.5-3.2188c-0.89285-1.4286-2.1384-1.6071-4.2812-2.5-2.1428-0.89285-3.0223-1.0491-4.0938-1.4062-0.13394-0.0446-0.27231-0.0892-0.40625-0.0937v-3e-5zm-13.531 97.062l6.9688 0.5312 3.2188 2.5-6.9688 4.4688-3.2188-7.5zm26.438 41.406l8.0312 5.7188-9.125-3.5625 1.0938-2.1562zm39.094 21.438c0.71429 0 7.5 3.4062 7.5 3.4062l-1.4375 1.5938-6.0625-5z"/>
</svg>
